<?xml version="1.0" encoding="ISO-8859-1"?>
<!DOCTYPE svg PUBLIC "-//W3C//DTD SVG 1.0//EN" "http://www.w3.org/TR/2001/REC-SVG-20010904/DTD/svg10.dtd">
<!-- Creator: CorelDRAW -->
<svg xmlns="http://www.w3.org/2000/svg" xmlns:odm="http://product.corel.com/CGS/11/cddns/" xml:space="preserve" width="200px" height="150px" style="shape-rendering: geometricprecision; image-rendering: optimizequality;" viewBox="0 0 200 150">
  <path style="fill: rgb(0, 0, 0); fill-rule: evenodd;" d="M183 121c0,7 -6,13 -13,13l-155 0 12 -49 143 0c8,0 13,7 13,14l0 22zm-143 2l6 0 3 -12c0,-4 4,-4 7,-4l1 -6c-2,0 -5,1 -8,3l1 -3 -6 0 -4 22zm26 -14c0,-4 9,-8 8,0l-8 0zm13 5l-14 0c-2,5 4,8 7,3l6 0c-2,5 -6,7 -11,7 -8,0 -10,-6 -8,-14 2,-4 5,-11 15,-9 7,1 6,8 5,13zm19 -1c-5,-1 -9,2 -7,5 3,3 7,0 7,-5zm4 10l-5 0 0 -3c-6,6 -13,3 -13,-2 1,-7 6,-10 15,-9 2,-5 -3,-7 -6,-2l-5 0c0,-3 4,-7 9,-7 7,0 9,4 8,6l-3 17zm46 8l16 -30 -6 0 -8 14 -2 -14 -6 0 3 22 -4 8 7 0zm-23 -8l6 0 7 -31 -7 0 -2 11c-8,-7 -19,3 -18,13 0,8 9,10 14,5l0 2zm-8 -8c0,-8 9,-14 11,-6 0,8 -10,14 -11,6z"/>
  <path style="fill: rgb(0, 0, 0);" d="M111 13l-15 63 -21 0 6 -26 -24 0 -6 26 -22 0 15 -63 21 0 -5 22 24 0 5 -22 22 0zm13 0l29 0c13,0 20,2 24,7 4,5 6,11 6,19 0,8 -2,15 -5,21 -4,7 -8,11 -13,13 -5,2 -14,3 -18,3l-37 0 14 -63zm12 49l10 0c5,0 9,-3 11,-8 3,-6 4,-11 4,-17 0,-3 -1,-6 -2,-7 -2,-2 -4,-3 -8,-3l-7 0 -8 35z"/>
</svg>